<mxfile host="app.diagrams.net" agent="Mozilla/5.0 (Windows NT 10.0; Win64; x64) AppleWebKit/537.36 (KHTML, like Gecko) Chrome/128.0.0.0 Safari/537.36" version="24.7.7">
  <diagram name="Page-1" id="6RYSGhblyWUirFsnthWd">
    <mxGraphModel dx="601" dy="325" grid="1" gridSize="10" guides="1" tooltips="1" connect="1" arrows="1" fold="1" page="1" pageScale="1" pageWidth="850" pageHeight="1100" math="0" shadow="0">
      <root>
        <mxCell id="0" />
        <mxCell id="1" parent="0" />
        <mxCell id="PqAlh_Z84jMVuFjGxGuD-3" value="" style="edgeStyle=orthogonalEdgeStyle;rounded=0;orthogonalLoop=1;jettySize=auto;html=1;" parent="1" source="PqAlh_Z84jMVuFjGxGuD-1" target="PqAlh_Z84jMVuFjGxGuD-2" edge="1">
          <mxGeometry relative="1" as="geometry" />
        </mxCell>
        <mxCell id="PqAlh_Z84jMVuFjGxGuD-1" value="Student&#39;s Behavior During Examination" style="rounded=0;whiteSpace=wrap;html=1;" parent="1" vertex="1">
          <mxGeometry x="40" y="120" width="120" height="40" as="geometry" />
        </mxCell>
        <mxCell id="PqAlh_Z84jMVuFjGxGuD-5" value="" style="edgeStyle=orthogonalEdgeStyle;rounded=0;orthogonalLoop=1;jettySize=auto;html=1;" parent="1" source="PqAlh_Z84jMVuFjGxGuD-2" target="PqAlh_Z84jMVuFjGxGuD-4" edge="1">
          <mxGeometry relative="1" as="geometry" />
        </mxCell>
        <mxCell id="PqAlh_Z84jMVuFjGxGuD-2" value="Conversion to Digital Behavior Logs using Action Recognition AI Model&amp;nbsp;&amp;nbsp;" style="rounded=0;whiteSpace=wrap;html=1;" parent="1" vertex="1">
          <mxGeometry x="220" y="104.66" width="120" height="70" as="geometry" />
        </mxCell>
        <mxCell id="PqAlh_Z84jMVuFjGxGuD-4" value="Behavior Data Logs Summary &amp;amp; Classroom Heatmap Visualization" style="rounded=0;whiteSpace=wrap;html=1;" parent="1" vertex="1">
          <mxGeometry x="410" y="104.66" width="120" height="70" as="geometry" />
        </mxCell>
        <mxCell id="PqAlh_Z84jMVuFjGxGuD-6" value="" style="endArrow=none;dashed=1;html=1;rounded=0;strokeWidth=2;" parent="1" edge="1">
          <mxGeometry width="50" height="50" relative="1" as="geometry">
            <mxPoint x="20" y="180" as="sourcePoint" />
            <mxPoint x="180" y="180" as="targetPoint" />
          </mxGeometry>
        </mxCell>
        <mxCell id="PqAlh_Z84jMVuFjGxGuD-7" value="" style="endArrow=none;dashed=1;html=1;rounded=0;strokeWidth=2;" parent="1" edge="1">
          <mxGeometry width="50" height="50" relative="1" as="geometry">
            <mxPoint x="20" y="179.66" as="sourcePoint" />
            <mxPoint x="20" y="99.66" as="targetPoint" />
          </mxGeometry>
        </mxCell>
        <mxCell id="PqAlh_Z84jMVuFjGxGuD-8" value="" style="endArrow=none;dashed=1;html=1;rounded=0;strokeWidth=2;" parent="1" edge="1">
          <mxGeometry width="50" height="50" relative="1" as="geometry">
            <mxPoint x="180" y="99.66" as="sourcePoint" />
            <mxPoint x="180" y="179.66" as="targetPoint" />
          </mxGeometry>
        </mxCell>
        <mxCell id="PqAlh_Z84jMVuFjGxGuD-9" value="" style="endArrow=none;dashed=1;html=1;rounded=0;strokeWidth=2;" parent="1" edge="1">
          <mxGeometry width="50" height="50" relative="1" as="geometry">
            <mxPoint x="180" y="100" as="sourcePoint" />
            <mxPoint x="20" y="100" as="targetPoint" />
          </mxGeometry>
        </mxCell>
        <mxCell id="PqAlh_Z84jMVuFjGxGuD-10" value="&lt;font style=&quot;font-size: 13px;&quot;&gt;Input&lt;/font&gt;" style="edgeLabel;html=1;align=center;verticalAlign=middle;resizable=0;points=[];" parent="PqAlh_Z84jMVuFjGxGuD-9" vertex="1" connectable="0">
          <mxGeometry x="-0.1069" relative="1" as="geometry">
            <mxPoint x="-8" as="offset" />
          </mxGeometry>
        </mxCell>
        <mxCell id="PqAlh_Z84jMVuFjGxGuD-11" value="" style="endArrow=none;dashed=1;html=1;rounded=0;strokeWidth=2;" parent="1" edge="1">
          <mxGeometry width="50" height="50" relative="1" as="geometry">
            <mxPoint x="360" y="90" as="sourcePoint" />
            <mxPoint x="200" y="90" as="targetPoint" />
          </mxGeometry>
        </mxCell>
        <mxCell id="PqAlh_Z84jMVuFjGxGuD-12" value="&lt;font style=&quot;font-size: 13px;&quot;&gt;Process&lt;/font&gt;" style="edgeLabel;html=1;align=center;verticalAlign=middle;resizable=0;points=[];" parent="PqAlh_Z84jMVuFjGxGuD-11" vertex="1" connectable="0">
          <mxGeometry x="-0.1069" relative="1" as="geometry">
            <mxPoint x="-8" as="offset" />
          </mxGeometry>
        </mxCell>
        <mxCell id="PqAlh_Z84jMVuFjGxGuD-13" value="" style="endArrow=none;dashed=1;html=1;rounded=0;strokeWidth=2;" parent="1" edge="1">
          <mxGeometry width="50" height="50" relative="1" as="geometry">
            <mxPoint x="200" y="190" as="sourcePoint" />
            <mxPoint x="200" y="90" as="targetPoint" />
          </mxGeometry>
        </mxCell>
        <mxCell id="PqAlh_Z84jMVuFjGxGuD-18" value="" style="endArrow=none;dashed=1;html=1;rounded=0;strokeWidth=2;" parent="1" edge="1">
          <mxGeometry width="50" height="50" relative="1" as="geometry">
            <mxPoint x="200" y="190" as="sourcePoint" />
            <mxPoint x="360" y="190" as="targetPoint" />
          </mxGeometry>
        </mxCell>
        <mxCell id="PqAlh_Z84jMVuFjGxGuD-19" value="" style="endArrow=none;dashed=1;html=1;rounded=0;strokeWidth=2;" parent="1" edge="1">
          <mxGeometry width="50" height="50" relative="1" as="geometry">
            <mxPoint x="360" y="90" as="sourcePoint" />
            <mxPoint x="360" y="190" as="targetPoint" />
          </mxGeometry>
        </mxCell>
        <mxCell id="PqAlh_Z84jMVuFjGxGuD-20" value="" style="endArrow=none;dashed=1;html=1;rounded=0;strokeWidth=2;" parent="1" edge="1">
          <mxGeometry width="50" height="50" relative="1" as="geometry">
            <mxPoint x="390" y="89.66" as="sourcePoint" />
            <mxPoint x="390" y="189.66" as="targetPoint" />
          </mxGeometry>
        </mxCell>
        <mxCell id="PqAlh_Z84jMVuFjGxGuD-21" value="" style="endArrow=none;dashed=1;html=1;rounded=0;strokeWidth=2;" parent="1" edge="1">
          <mxGeometry width="50" height="50" relative="1" as="geometry">
            <mxPoint x="390" y="90" as="sourcePoint" />
            <mxPoint x="550" y="90" as="targetPoint" />
          </mxGeometry>
        </mxCell>
        <mxCell id="PqAlh_Z84jMVuFjGxGuD-24" value="&lt;font style=&quot;font-size: 13px;&quot;&gt;Output&lt;/font&gt;" style="edgeLabel;html=1;align=center;verticalAlign=middle;resizable=0;points=[];" parent="PqAlh_Z84jMVuFjGxGuD-21" vertex="1" connectable="0">
          <mxGeometry x="0.2744" y="-1" relative="1" as="geometry">
            <mxPoint x="-22" as="offset" />
          </mxGeometry>
        </mxCell>
        <mxCell id="PqAlh_Z84jMVuFjGxGuD-22" value="" style="endArrow=none;dashed=1;html=1;rounded=0;strokeWidth=2;" parent="1" edge="1">
          <mxGeometry width="50" height="50" relative="1" as="geometry">
            <mxPoint x="550" y="189.66" as="sourcePoint" />
            <mxPoint x="550" y="89.66" as="targetPoint" />
          </mxGeometry>
        </mxCell>
        <mxCell id="PqAlh_Z84jMVuFjGxGuD-23" value="" style="endArrow=none;dashed=1;html=1;rounded=0;strokeWidth=2;" parent="1" edge="1">
          <mxGeometry width="50" height="50" relative="1" as="geometry">
            <mxPoint x="390" y="190" as="sourcePoint" />
            <mxPoint x="550" y="190" as="targetPoint" />
          </mxGeometry>
        </mxCell>
      </root>
    </mxGraphModel>
  </diagram>
</mxfile>
